<?xml version="1.0" encoding="utf-8"?>
<svg xmlns="http://www.w3.org/2000/svg" viewBox="0 0 270 270" xmlns:bx="https://boxy-svg.com" width="270px" height="270px"><defs><bx:export><bx:file format="svg"/></bx:export></defs><rect width="270" height="270" style="fill: rgb(26, 64, 154);"/><path d="M10,10h10v10h-10zM20,10h10v10h-10zM30,10h10v10h-10zM40,10h10v10h-10zM50,10h10v10h-10zM60,10h10v10h-10zM70,10h10v10h-10zM90,10h10v10h-10zM120,10h10v10h-10zM130,10h10v10h-10zM150,10h10v10h-10zM190,10h10v10h-10zM200,10h10v10h-10zM210,10h10v10h-10zM220,10h10v10h-10zM230,10h10v10h-10zM240,10h10v10h-10zM250,10h10v10h-10zM10,20h10v10h-10zM70,20h10v10h-10zM100,20h10v10h-10zM110,20h10v10h-10zM140,20h10v10h-10zM190,20h10v10h-10zM250,20h10v10h-10zM10,30h10v10h-10zM30,30h10v10h-10zM40,30h10v10h-10zM50,30h10v10h-10zM70,30h10v10h-10zM110,30h10v10h-10zM130,30h10v10h-10zM140,30h10v10h-10zM150,30h10v10h-10zM190,30h10v10h-10zM210,30h10v10h-10zM220,30h10v10h-10zM230,30h10v10h-10zM250,30h10v10h-10zM10,40h10v10h-10zM30,40h10v10h-10zM40,40h10v10h-10zM50,40h10v10h-10zM70,40h10v10h-10zM130,40h10v10h-10zM140,40h10v10h-10zM160,40h10v10h-10zM170,40h10v10h-10zM190,40h10v10h-10zM210,40h10v10h-10zM220,40h10v10h-10zM230,40h10v10h-10zM250,40h10v10h-10zM10,50h10v10h-10zM30,50h10v10h-10zM40,50h10v10h-10zM50,50h10v10h-10zM70,50h10v10h-10zM100,50h10v10h-10zM120,50h10v10h-10zM150,50h10v10h-10zM190,50h10v10h-10zM210,50h10v10h-10zM220,50h10v10h-10zM230,50h10v10h-10zM250,50h10v10h-10zM10,60h10v10h-10zM70,60h10v10h-10zM110,60h10v10h-10zM130,60h10v10h-10zM150,60h10v10h-10zM190,60h10v10h-10zM250,60h10v10h-10zM10,70h10v10h-10zM20,70h10v10h-10zM30,70h10v10h-10zM40,70h10v10h-10zM50,70h10v10h-10zM60,70h10v10h-10zM70,70h10v10h-10zM90,70h10v10h-10zM110,70h10v10h-10zM130,70h10v10h-10zM150,70h10v10h-10zM170,70h10v10h-10zM190,70h10v10h-10zM200,70h10v10h-10zM210,70h10v10h-10zM220,70h10v10h-10zM230,70h10v10h-10zM240,70h10v10h-10zM250,70h10v10h-10zM90,80h10v10h-10zM110,80h10v10h-10zM120,80h10v10h-10zM140,80h10v10h-10zM170,80h10v10h-10zM10,90h10v10h-10zM20,90h10v10h-10zM40,90h10v10h-10zM50,90h10v10h-10zM70,90h10v10h-10zM100,90h10v10h-10zM110,90h10v10h-10zM120,90h10v10h-10zM130,90h10v10h-10zM160,90h10v10h-10zM170,90h10v10h-10zM190,90h10v10h-10zM250,90h10v10h-10zM30,100h10v10h-10zM40,100h10v10h-10zM50,100h10v10h-10zM80,100h10v10h-10zM100,100h10v10h-10zM130,100h10v10h-10zM140,100h10v10h-10zM150,100h10v10h-10zM160,100h10v10h-10zM200,100h10v10h-10zM210,100h10v10h-10zM220,100h10v10h-10zM230,100h10v10h-10zM240,100h10v10h-10zM10,110h10v10h-10zM30,110h10v10h-10zM60,110h10v10h-10zM70,110h10v10h-10zM90,110h10v10h-10zM110,110h10v10h-10zM120,110h10v10h-10zM140,110h10v10h-10zM160,110h10v10h-10zM220,110h10v10h-10zM250,110h10v10h-10zM40,120h10v10h-10zM60,120h10v10h-10zM90,120h10v10h-10zM100,120h10v10h-10zM110,120h10v10h-10zM150,120h10v10h-10zM200,120h10v10h-10zM210,120h10v10h-10zM220,120h10v10h-10zM230,120h10v10h-10zM240,120h10v10h-10zM250,120h10v10h-10zM10,130h10v10h-10zM20,130h10v10h-10zM70,130h10v10h-10zM80,130h10v10h-10zM100,130h10v10h-10zM130,130h10v10h-10zM140,130h10v10h-10zM160,130h10v10h-10zM190,130h10v10h-10zM200,130h10v10h-10zM250,130h10v10h-10zM10,140h10v10h-10zM40,140h10v10h-10zM50,140h10v10h-10zM90,140h10v10h-10zM120,140h10v10h-10zM130,140h10v10h-10zM140,140h10v10h-10zM160,140h10v10h-10zM170,140h10v10h-10zM180,140h10v10h-10zM210,140h10v10h-10zM240,140h10v10h-10zM10,150h10v10h-10zM20,150h10v10h-10zM40,150h10v10h-10zM50,150h10v10h-10zM60,150h10v10h-10zM70,150h10v10h-10zM80,150h10v10h-10zM160,150h10v10h-10zM180,150h10v10h-10zM190,150h10v10h-10zM210,150h10v10h-10zM220,150h10v10h-10zM230,150h10v10h-10zM240,150h10v10h-10zM250,150h10v10h-10zM10,160h10v10h-10zM30,160h10v10h-10zM40,160h10v10h-10zM60,160h10v10h-10zM90,160h10v10h-10zM100,160h10v10h-10zM110,160h10v10h-10zM150,160h10v10h-10zM170,160h10v10h-10zM190,160h10v10h-10zM200,160h10v10h-10zM220,160h10v10h-10zM230,160h10v10h-10zM250,160h10v10h-10zM10,170h10v10h-10zM40,170h10v10h-10zM50,170h10v10h-10zM60,170h10v10h-10zM70,170h10v10h-10zM80,170h10v10h-10zM90,170h10v10h-10zM120,170h10v10h-10zM130,170h10v10h-10zM140,170h10v10h-10zM170,170h10v10h-10zM180,170h10v10h-10zM190,170h10v10h-10zM200,170h10v10h-10zM210,170h10v10h-10zM230,170h10v10h-10zM240,170h10v10h-10zM90,180h10v10h-10zM110,180h10v10h-10zM170,180h10v10h-10zM210,180h10v10h-10zM230,180h10v10h-10zM240,180h10v10h-10zM10,190h10v10h-10zM20,190h10v10h-10zM30,190h10v10h-10zM40,190h10v10h-10zM50,190h10v10h-10zM60,190h10v10h-10zM70,190h10v10h-10zM110,190h10v10h-10zM120,190h10v10h-10zM140,190h10v10h-10zM170,190h10v10h-10zM190,190h10v10h-10zM210,190h10v10h-10zM250,190h10v10h-10zM10,200h10v10h-10zM70,200h10v10h-10zM140,200h10v10h-10zM160,200h10v10h-10zM170,200h10v10h-10zM210,200h10v10h-10zM240,200h10v10h-10zM10,210h10v10h-10zM30,210h10v10h-10zM40,210h10v10h-10zM50,210h10v10h-10zM70,210h10v10h-10zM90,210h10v10h-10zM110,210h10v10h-10zM120,210h10v10h-10zM130,210h10v10h-10zM150,210h10v10h-10zM160,210h10v10h-10zM170,210h10v10h-10zM180,210h10v10h-10zM190,210h10v10h-10zM200,210h10v10h-10zM210,210h10v10h-10zM10,220h10v10h-10zM30,220h10v10h-10zM40,220h10v10h-10zM50,220h10v10h-10zM70,220h10v10h-10zM90,220h10v10h-10zM100,220h10v10h-10zM110,220h10v10h-10zM120,220h10v10h-10zM160,220h10v10h-10zM170,220h10v10h-10zM180,220h10v10h-10zM190,220h10v10h-10zM240,220h10v10h-10zM250,220h10v10h-10zM10,230h10v10h-10zM30,230h10v10h-10zM40,230h10v10h-10zM50,230h10v10h-10zM70,230h10v10h-10zM120,230h10v10h-10zM140,230h10v10h-10zM150,230h10v10h-10zM210,230h10v10h-10zM220,230h10v10h-10zM230,230h10v10h-10zM240,230h10v10h-10zM250,230h10v10h-10zM10,240h10v10h-10zM70,240h10v10h-10zM90,240h10v10h-10zM100,240h10v10h-10zM110,240h10v10h-10zM120,240h10v10h-10zM150,240h10v10h-10zM160,240h10v10h-10zM180,240h10v10h-10zM190,240h10v10h-10zM200,240h10v10h-10zM210,240h10v10h-10zM230,240h10v10h-10zM240,240h10v10h-10zM250,240h10v10h-10zM10,250h10v10h-10zM20,250h10v10h-10zM30,250h10v10h-10zM40,250h10v10h-10zM50,250h10v10h-10zM60,250h10v10h-10zM70,250h10v10h-10zM90,250h10v10h-10zM110,250h10v10h-10zM120,250h10v10h-10zM170,250h10v10h-10zM190,250h10v10h-10zM220,250h10v10h-10zM250,250h10v10h-10z" style="fill: rgb(255, 255, 255);"/></svg>